<?xml version="1.0" standalone="no"?>
<!DOCTYPE svg PUBLIC "-//W3C//DTD SVG 20010904//EN"
 "http://www.w3.org/TR/2001/REC-SVG-20010904/DTD/svg10.dtd">
<svg version="1.0" xmlns="http://www.w3.org/2000/svg"
 width="128.000000pt" height="128.000000pt" viewBox="0 0 128.000000 128.000000"
 preserveAspectRatio="xMidYMid meet">

<g transform="translate(0.000000,128.000000) scale(0.100000,-0.100000)"
fill="#000000" stroke="none">
<path d="M0 1190 l0 -89 25 24 24 25 586 0 c396 0 593 -3 606 -11 11 -6 24
-20 29 -32 6 -15 9 9 9 76 l1 97 -640 0 -640 0 0 -90z"/>
<path d="M1 866 l-1 -219 21 27 20 26 599 0 599 0 20 -26 21 -27 -1 219 c0
121 -3 212 -6 204 -14 -40 -15 -40 -633 -40 -618 0 -619 0 -633 40 -3 8 -6
-83 -6 -204z"/>
<path d="M1 414 c0 -121 3 -212 6 -204 14 40 15 40 633 40 618 0 619 0 633
-40 3 -8 6 83 6 204 l1 219 -21 -27 -20 -26 -599 0 -599 0 -20 26 -21 27 1
-219z"/>
<path d="M1270 176 c0 -8 -10 -22 -22 -30 -20 -14 -94 -16 -611 -16 l-588 0
-24 25 -25 24 0 -89 0 -90 640 0 640 0 0 95 c0 52 -2 95 -5 95 -3 0 -5 -6 -5
-14z"/>
</g>
</svg>
